<?xml version="1.0" encoding="utf-8"?>
<!-- Generator: Adobe Illustrator 21.0.0, SVG Export Plug-In . SVG Version: 6.00 Build 0)  -->
<svg version="1.1" id="Layer_1" xmlns="http://www.w3.org/2000/svg" xmlns:xlink="http://www.w3.org/1999/xlink" x="0px" y="0px"
	 viewBox="0 0 227.7 94.3" style="enable-background:new 0 0 227.7 94.3;" xml:space="preserve">
<style type="text/css">
	.st0{clip-path:url(#SVGID_2_);}
	.st1{opacity:0.1;clip-path:url(#SVGID_4_);}
	.st2{clip-path:url(#SVGID_6_);fill:#1D1D1B;}
	.st3{clip-path:url(#SVGID_4_);fill:#3E312C;}
	.st4{clip-path:url(#SVGID_4_);fill:#C44645;}
	.st5{clip-path:url(#SVGID_4_);fill:#E75C5B;}
	.st6{clip-path:url(#SVGID_4_);fill:#ABEDE3;}
	.st7{clip-path:url(#SVGID_4_);fill:#F9B659;}
	.st8{opacity:0.75;clip-path:url(#SVGID_4_);}
	.st9{clip-path:url(#SVGID_8_);fill:#FFFFFF;}
	.st10{clip-path:url(#SVGID_4_);fill:#FFFFFF;}
	.st11{opacity:0.15;clip-path:url(#SVGID_4_);}
	.st12{clip-path:url(#SVGID_10_);}
	.st13{clip-path:url(#SVGID_12_);fill:#1D1715;}
	.st14{clip-path:url(#SVGID_12_);fill:#403430;}
	.st15{opacity:0.1;clip-path:url(#SVGID_12_);}
	.st16{clip-path:url(#SVGID_14_);fill:#1D1D1B;}
	.st17{opacity:0.15;clip-path:url(#SVGID_12_);}
	.st18{clip-path:url(#SVGID_16_);fill:#222220;}
	.st19{clip-path:url(#SVGID_12_);fill:#FDFDFD;}
	.st20{clip-path:url(#SVGID_12_);fill:#DAD1D1;}
	.st21{clip-path:url(#SVGID_18_);fill:#1D1715;}
	.st22{clip-path:url(#SVGID_18_);fill:#403430;}
	.st23{opacity:0.1;clip-path:url(#SVGID_18_);}
	.st24{clip-path:url(#SVGID_20_);fill:#1D1D1B;}
	.st25{opacity:0.15;clip-path:url(#SVGID_18_);}
	.st26{clip-path:url(#SVGID_22_);fill:#222220;}
	.st27{clip-path:url(#SVGID_18_);fill:#FDFDFD;}
	.st28{clip-path:url(#SVGID_18_);fill:#DAD1D1;}
	.st29{clip-path:url(#SVGID_24_);fill:#E75C5B;}
	.st30{opacity:0.75;clip-path:url(#SVGID_24_);}
	.st31{clip-path:url(#SVGID_26_);fill:#FFFFFF;}
	.st32{clip-path:url(#SVGID_28_);fill:#FFFFFF;}
</style>
<g>
	<defs>
		<rect id="SVGID_1_" width="227.7" height="94.3"/>
	</defs>
	<clipPath id="SVGID_2_">
		<use xlink:href="#SVGID_1_"  style="overflow:visible;"/>
	</clipPath>
	<g class="st0">
		<defs>
			<rect id="SVGID_3_" y="0" width="227.7" height="94.3"/>
		</defs>
		<clipPath id="SVGID_4_">
			<use xlink:href="#SVGID_3_"  style="overflow:visible;"/>
		</clipPath>
		<g class="st1">
			<g>
				<defs>
					<rect id="SVGID_5_" x="9" y="83.3" width="218.5" height="10.9"/>
				</defs>
				<clipPath id="SVGID_6_">
					<use xlink:href="#SVGID_5_"  style="overflow:visible;"/>
				</clipPath>
				<path class="st2" d="M9,88.8c0,3,48.9,5.5,109.2,5.5s109.3-2.4,109.3-5.5c0-3-48.9-5.5-109.3-5.5S9,85.8,9,88.8"/>
			</g>
		</g>
		<path class="st3" d="M8.4,59.2l-5.5-1.1c-2-0.4-3.2-2.3-2.9-4.3l5.6-28.2c0.4-2,2.3-3.3,4.3-2.9l5.5,1.1c2,0.4,3.2,2.3,2.9,4.3
			l-5.6,28.2C12.3,58.3,10.4,59.6,8.4,59.2"/>
		<path class="st4" d="M8.7,58l-0.5,5.6c0.4,1.9,1.4,3.6,2.6,5c0.9,1,2,1.9,3.3,2.5c0.4,0.2,0.8,0.4,1.2,0.5l11.9,5h187.4l4.9-0.6
			c2.7-0.4,5-2.3,5.7-4.9c0.1-0.2,0.1-0.4,0.2-0.6l0.1-0.7l0.1-0.6l1.3-6.5l0.5-2.6c0.1-0.3,0.1-0.6,0.1-0.9c0-0.5,0-0.9-0.1-1.4
			c-0.1-0.4-0.1-0.8-0.3-1.2c0-0.1-0.1-0.2-0.1-0.3v0l-4.7-12c0,0,0,0,0,0h0c-0.2-0.5-0.5-1-0.8-1.5c-0.2-0.3-0.4-0.6-0.6-0.9
			c-0.4-0.5-0.8-1-1.3-1.4c0,0-0.1,0-0.1-0.1c-0.3-0.2-0.5-0.4-0.8-0.6c-0.1-0.1-0.2-0.1-0.3-0.2c-0.2-0.1-0.5-0.3-0.8-0.4
			c-0.2-0.1-0.4-0.2-0.6-0.2c-0.2-0.1-0.3-0.2-0.5-0.2c-0.4-0.1-0.8-0.3-1.1-0.3l-50.5-12.5c-0.9-0.4-1.8-0.9-2.6-1.5L140.8,5.7
			c-3.1-2.8-5.2-3.3-10.2-4.1c-27.6-2.1-61.4-2-89.2,0c-5.7,0-10.9,3-13.9,7.8c0,0-14.2,23.7-14.3,24l-0.3,1.4L8.8,52.9l-0.1,0.3
			c-0.1,0.6-0.2,1.3-0.3,1.9C8.4,56,8.5,57,8.7,58"/>
		<path class="st5" d="M104.7,66.1V5.5c0-1.3,1-2.3,2.3-2.2c8.2,0.3,16,0.7,23.3,1.2c4.9,0.8,6.1,1.1,8.5,3.3l0.1,0.1l18.2,15.6
			c2.2,1.9,3.4,4.6,3.4,7.5v35c0,1.9-1.5,3.4-3.4,3.4h-49C106.2,69.5,104.7,68,104.7,66.1"/>
		<path class="st6" d="M107.1,6.8v20.4c0,0.8,0.6,1.5,1.5,1.5l47.8,1.1c0.9,0,1.6-0.9,1.2-1.8c-0.4-1-1.1-1.9-1.9-2.6L137.3,9.7
			l-0.1-0.1c-1.9-1.7-2.6-2-7.2-2.7c-6.8-0.5-14.1-0.9-21.8-1.2C107.6,5.7,107.1,6.2,107.1,6.8"/>
		<path class="st3" d="M216.3,47.2l2.8,6.8c0.5,1.3,2,2.3,3.8,2.6c0.4,0.1,0.9,0.1,1.3,0.1l2.5,0c0.2,0,0.4,0,0.6-0.1
			c0-0.1-0.1-0.2-0.1-0.3v0l-4.7-12c0,0,0,0,0,0h0c-0.2-0.5-0.5-1-0.8-1.5c-0.2-0.3-0.4-0.6-0.6-0.9h-0.7c-1.7,0-3.2,0.7-3.9,1.8
			C215.9,44.7,215.8,46,216.3,47.2"/>
		<path class="st7" d="M217.1,46.9l0.1,0.1l2.7,6.7c0.4,1,1.7,1.8,3.2,2.1c0.4,0.1,0.7,0.1,1.1,0.1l2.5,0c0.9,0,1-1.8-0.3-5.1
			c-1-2.7-1.8-4.1-2.8-6.6c-0.4-0.9-1.3-1.5-2.2-1.5h-0.9C217.7,42.8,216.2,44.7,217.1,46.9"/>
		<path class="st3" d="M14.1,71.2c0.4,0.2,0.8,0.4,1.2,0.5l11.9,5h187.4l4.9-0.6c2.7-0.4,5-2.3,5.7-4.9H14.1z"/>
		<path class="st3" d="M209.9,76.7h4.8l4.9-0.6c2.7-0.4,5-2.3,5.7-4.9c0.1-0.2,0.1-0.4,0.2-0.6l0.1-0.7l0.1-0.6l1.3-6.5l0.5-2.6
			c0.1-0.3,0.1-0.6,0.1-0.9h-5.5c-4.3,0-8.1,2.9-9.3,7L209.9,76.7z"/>
		<path class="st3" d="M8,62.4c0.2,3.4,0.2,4.6,2.4,6.6c2.6,2.4,16.8,7.6,16.8,7.6l-1.6-13.5c-1.2-4.8-5.5-8.1-10.5-8.1H8.5
			C8.4,56,8,62.4,8,62.4"/>
		<path class="st7" d="M220.7,65.5c-0.2,1.4,0.2,2.5,1.1,2.5c0.8,0,1.7-1.1,2-2.5c0.2-1.4-0.2-2.5-1.1-2.5
			C221.8,63,220.9,64.1,220.7,65.5"/>
		<path class="st7" d="M13.5,61.7c0.2,2-0.3,3.5-1.2,3.5c-0.9,0-1.7-1.6-1.9-3.6c-0.2-2,0.3-3.5,1.2-3.5
			C12.4,58.1,13.3,59.7,13.5,61.7"/>
		<path class="st3" d="M8.8,52.9h0.8c1.1,0,2-0.7,2.3-1.8l3.3-13.5c0.2-0.7,0-1.4-0.4-2c-0.4-0.5-1-0.9-1.7-0.9L8.8,52.9z"/>
		<path class="st7" d="M8,45.6l4,0.8l-1.1,4.5c-0.2,0.6-0.7,1.1-1.4,1.1H8.6c-1.1,0-1.9-1-1.6-2.1L8,45.6z"/>
		<path class="st4" d="M10.1,36.9c0.2-0.8,0.9-1.3,1.6-1.3h1c0.9,0,1.6,0.9,1.4,1.8l-2.2,9l-4-0.8L10.1,36.9z"/>
		<path class="st4" d="M158,28.4c0.2,3.4-3.2,3.4-5.7,3.5c-0.3,0-0.6,0-0.9-0.1l3-12.1C156.4,20.8,157.9,25.4,158,28.4"/>
		<g class="st8">
			<g>
				<defs>
					<rect id="SVGID_7_" x="109" y="7" width="36.5" height="21.4"/>
				</defs>
				<clipPath id="SVGID_8_">
					<use xlink:href="#SVGID_7_"  style="overflow:visible;"/>
				</clipPath>
				<path class="st9" d="M109,7l16,20.9l14.2,0.3L123.7,7.7C119,7.4,114.1,7.1,109,7"/>
				<path class="st9" d="M125.6,7.8L141,28.2l4.6,0.1L130.4,8.2c-0.2,0-0.4-0.1-0.6-0.1C128.4,8,127,7.9,125.6,7.8"/>
			</g>
		</g>
		<path class="st3" d="M163.7,76.7h45l-0.5-5.5l-0.3-3.5c-0.7-7.5-7-13.2-14.5-13.2h-14.4c-7.6,0-13.9,5.9-14.5,13.5l-0.3,3.3
			L163.7,76.7z"/>
		<path class="st5" d="M67.2,3.1C75.1,2.7,79.1,3,86.6,3c4.4,0,8.8,0,13.2,0.1c1.4,0,2.6,1.2,2.6,2.6v61.3c0,1.4-1.1,2.5-2.5,2.5
			H80.5c-1.2,0-2.1-0.9-2.2-2l0-0.2c-0.9-9.3-8.7-16.4-18.1-16.4h-2.9c-3.6,0-6.5-2.9-6.5-6.5v-13C50.7,31.3,58.8,3.5,67.2,3.1"/>
		<path class="st6" d="M41.5,27.2L24,26.8c-1.1,0-1.7-1.2-1.2-2.1c2.6-4.5,5.6-9.7,8.2-13.8c3.2-5,5.9-6.3,19.7-6.3
			c1,0,1.7,1.1,1.3,2c-2.5,5.5-6.7,13.7-9.3,19.7C42.6,26.9,42,27.2,41.5,27.2"/>
		<path class="st6" d="M56.2,27.5l42.4,0.9c0.7,0,1.3-0.6,1.3-1.3V7c0-1.1-0.3-1.5-1.4-1.5c-2.8,0-4.5-0.1-7.4-0.1
			c-1.5,0-3.1,0-4.6,0c-2.2,0-4.2,0-6,0c-1.6,0-3.1,0-4.7,0c-2.9,0-5.6,0.1-8.6,0.2c-0.5,0-1,0.2-1.5,0.6
			C62.4,8.4,58.2,16.7,55,25.8C54.7,26.6,55.3,27.5,56.2,27.5"/>
		<path class="st3" d="M30.6,76.7h45L75,71.2l-0.3-3.5c-0.7-7.5-7-13.2-14.5-13.2H45.8c-7.6,0-14,5.9-14.5,13.5L31,71.2L30.6,76.7z"
			/>
		<path class="st10" d="M108.4,34.9l8.2,0.2c0.4,0,0.7-0.3,0.7-0.6v-1.6c0-0.4-0.3-0.6-0.6-0.6l-8.2-0.2c-0.4,0-0.7,0.3-0.7,0.6v1.6
			C107.8,34.6,108.1,34.9,108.4,34.9"/>
		<path class="st10" d="M56.6,33.7l8.2,0.2c0.4,0,0.7-0.3,0.7-0.6v-1.6c0-0.4-0.3-0.6-0.6-0.6l-8.2-0.2c-0.4,0-0.7,0.3-0.7,0.6V33
			C56,33.4,56.3,33.7,56.6,33.7"/>
		<g class="st11">
			<g>
				<defs>
					<rect id="SVGID_9_" y="49.7" width="226.4" height="26.9"/>
				</defs>
				<clipPath id="SVGID_10_">
					<use xlink:href="#SVGID_9_"  style="overflow:visible;"/>
				</clipPath>
				<path class="st12" d="M0.9,49.7L226.4,66l-0.7,3.2l-0.1,0.6l-0.1,0.7c0,0.2-0.1,0.4-0.2,0.6c-0.8,2.6-3,4.5-5.7,4.9l-4.9,0.6
					h-4.8h-1.2h-45H75.6h-45h-3.4c0,0-14.2-5.3-16.8-7.6c-2.2-2-2.2-3.2-2.4-6.6c0,0,0.1-1.6,0.2-3.3l-5.3-1.1
					c-2-0.4-3.2-2.3-2.9-4.3L0.9,49.7z"/>
			</g>
		</g>
	</g>
	<g class="st0">
		<defs>
			<path id="SVGID_11_" d="M178.9,54.4c-7.6,0-13.9,5.9-14.5,13.5l-0.3,3.3l-0.4,5.5c0,17.3,45,17.3,45,0l-0.5-5.5l-0.3-3.5
				c-0.7-7.5-7-13.2-14.5-13.2H178.9z"/>
		</defs>
		<clipPath id="SVGID_12_">
			<use xlink:href="#SVGID_11_"  style="overflow:visible;"/>
		</clipPath>
		<path class="st13" d="M168.9,71c0,0.3,0,0.7,0.1,1l-0.9,0.1c0,0-0.3,0.3-0.7,0.6c0,0,0,0-0.1,0.1c0,0-0.1,0.1-0.1,0.1
			c0.1,0.6,0.2,1.1,0.3,1.7c0,0.1,0,0.2,0.1,0.3c0-0.1,0.1-0.1,0.2-0.2l0,0c0.2-0.2,0.4-0.4,0.4-0.4l1.2-0.3c0.1,0.3,0.2,0.7,0.2,1
			l-0.8,0.2l-0.1,0c0,0-0.1,0.1-0.2,0.2c-0.1,0.1-0.2,0.3-0.4,0.4c0,0,0,0-0.1,0.1c0,0-0.1,0.1-0.1,0.1c0.2,0.6,0.4,1.3,0.7,1.9
			c0-0.1,0.1-0.1,0.1-0.2c0.2-0.2,0.3-0.4,0.3-0.4l1.2-0.5c0.1,0.3,0.3,0.6,0.4,0.9l-0.8,0.4c0,0-0.2,0.4-0.5,0.8c0,0,0,0.1-0.1,0.1
			c0,0,0,0.1-0.1,0.1c0.3,0.6,0.6,1.2,1,1.7c0-0.1,0.1-0.1,0.1-0.2c0,0,0-0.1,0.1-0.1c0.1-0.2,0.2-0.3,0.2-0.3l1.1-0.7
			c0.2,0.3,0.4,0.6,0.6,0.9l-0.7,0.5c0,0-0.2,0.4-0.3,0.8c0,0,0,0.1,0,0.1c0,0,0,0.1,0,0.1c0.4,0.5,0.8,1,1.3,1.5
			c0-0.1,0-0.2,0.1-0.2c0.1-0.3,0.1-0.5,0.1-0.5l0.9-0.8c0.2,0.3,0.5,0.5,0.7,0.7l-0.6,0.7c0,0-0.1,0.4-0.2,0.9c0,0,0,0.1,0,0.1
			c0,0,0,0.1,0,0.1c0.5,0.4,1,0.9,1.5,1.3c0-0.1,0-0.2,0-0.2c0-0.3,0-0.5,0-0.5l0.8-1c0.3,0.2,0.5,0.4,0.8,0.6l-0.5,0.8
			c0,0,0,0.4,0,0.9l0,0.1c0,0,0,0.1,0,0.2c0.6,0.4,1.1,0.7,1.7,1c0-0.1,0-0.2,0-0.2c0-0.3-0.1-0.5-0.1-0.5l0.6-1.1
			c0.3,0.2,0.6,0.3,0.9,0.5l-0.4,0.8c0,0,0,0.1,0,0.3c0,0.2,0.1,0.4,0.1,0.6c0,0,0,0.1,0,0.1c0,0,0,0.1,0,0.1
			c0.6,0.3,1.2,0.5,1.9,0.7c0-0.1,0-0.2-0.1-0.2c-0.1-0.3-0.1-0.5-0.1-0.5l0.4-1.2c0.3,0.1,0.6,0.2,1,0.3l-0.2,0.9
			c0,0,0.1,0.4,0.3,0.8c0,0,0,0.1,0,0.1c0,0,0,0.1,0,0.1c0.7,0.1,1.3,0.3,2,0.3c0-0.1-0.1-0.1-0.1-0.2c-0.1-0.3-0.2-0.5-0.2-0.5
			l0.2-1.2c0.3,0,0.7,0.1,1,0.1l-0.1,0.9c0,0,0.2,0.4,0.4,0.8c0,0,0,0.1,0,0.1c0,0,0.1,0.1,0.1,0.1c0.2,0,0.3,0,0.5,0
			c0.5,0,1,0,1.5,0c0-0.1-0.1-0.1-0.1-0.2c-0.2-0.2-0.3-0.4-0.3-0.4l0-1.2c0.3,0,0.7,0,1-0.1l0.1,0.9c0,0,0.3,0.3,0.6,0.7
			c0,0,0,0,0.1,0.1c0,0,0.1,0.1,0.1,0.1c0.7-0.1,1.3-0.2,2-0.4c-0.1-0.1-0.1-0.1-0.2-0.2c-0.2-0.2-0.4-0.4-0.4-0.4l-0.3-1.2
			c0.3-0.1,0.7-0.2,1-0.2l0.2,0.9c0,0,0.1,0.1,0.2,0.2c0.1,0.1,0.3,0.2,0.4,0.4c0,0,0,0,0.1,0.1c0,0,0.1,0.1,0.1,0.1
			c0.6-0.2,1.3-0.4,1.9-0.7c-0.1,0-0.1-0.1-0.2-0.1c-0.2-0.2-0.4-0.3-0.4-0.3l-0.5-1.2c0.3-0.1,0.6-0.3,0.9-0.4L194,87
			c0,0,0.4,0.2,0.8,0.5c0,0,0.1,0,0.1,0.1c0,0,0.1,0,0.1,0.1c0.6-0.3,1.2-0.6,1.7-1c-0.1,0-0.1-0.1-0.2-0.1c0,0-0.1,0-0.1-0.1
			c-0.2-0.1-0.3-0.2-0.3-0.2l-0.7-1.1c0.3-0.2,0.6-0.4,0.9-0.6l0.5,0.7c0,0,0.4,0.2,0.8,0.3c0,0,0.1,0,0.1,0c0,0,0.1,0,0.1,0
			c0.3-0.2,0.7-0.5,1-0.8c0.2-0.2,0.4-0.3,0.6-0.5c0,0,0,0,0,0c-0.1,0-0.1,0-0.2,0c-0.3-0.1-0.5-0.1-0.5-0.1l-0.8-0.9
			c0.3-0.2,0.5-0.5,0.7-0.7l0.7,0.6c0,0,0.4,0.1,0.9,0.2c0,0,0.1,0,0.1,0c0,0,0.1,0,0.1,0c0.4-0.5,0.9-1,1.3-1.5c-0.1,0-0.2,0-0.2,0
			c-0.3,0-0.5,0-0.5,0l-1-0.8c0.2-0.3,0.4-0.5,0.6-0.8l0.8,0.5c0,0,0.4,0,0.9,0l0.1,0c0,0,0.1,0,0.2,0c0.4-0.6,0.7-1.1,1-1.7
			c-0.1,0-0.2,0-0.2,0c-0.3,0-0.5,0.1-0.5,0.1l-1.1-0.6c0.2-0.3,0.3-0.6,0.5-0.9l0.8,0.4c0,0,0.1,0,0.3,0c0.2,0,0.4-0.1,0.6-0.1
			c0,0,0.1,0,0.1,0c0,0,0.1,0,0.1,0c0.3-0.6,0.5-1.2,0.7-1.9c-0.1,0-0.2,0-0.2,0.1c-0.3,0.1-0.5,0.1-0.5,0.1l-1.2-0.4
			c0.1-0.3,0.2-0.7,0.3-1l0.9,0.2c0,0,0.4-0.1,0.8-0.3c0,0,0.1,0,0.1,0c0,0,0.1,0,0.1,0c0.1-0.7,0.3-1.3,0.3-2
			c-0.1,0-0.1,0.1-0.2,0.1c-0.3,0.1-0.5,0.2-0.5,0.2l-1.2-0.2c0-0.3,0.1-0.7,0.1-1l0.9,0.1c0,0,0.4-0.2,0.8-0.4c0,0,0,0,0.1,0
			c0,0,0.1-0.1,0.1-0.1c0-0.2,0-0.3,0-0.5c0-0.5,0-1,0-1.5c-0.1,0-0.1,0.1-0.2,0.1c-0.2,0.2-0.4,0.3-0.4,0.3l-1.2,0
			c0-0.3,0-0.7-0.1-1l0.9-0.1c0,0,0.3-0.3,0.7-0.6c0,0,0,0,0.1-0.1c0,0,0.1-0.1,0.1-0.1c-0.1-0.7-0.2-1.3-0.4-2
			c-0.1,0.1-0.1,0.1-0.2,0.2c-0.2,0.2-0.4,0.4-0.4,0.4l-1.2,0.3c-0.1-0.3-0.1-0.7-0.2-1l0.9-0.2c0,0,0.1-0.1,0.2-0.2
			c0.1-0.1,0.2-0.3,0.4-0.4c0,0,0,0,0.1-0.1c0,0,0.1-0.1,0.1-0.1c-0.2-0.6-0.4-1.3-0.7-1.9c0,0.1-0.1,0.1-0.1,0.2
			c-0.2,0.2-0.3,0.4-0.3,0.4l-1.2,0.5c-0.1-0.3-0.3-0.6-0.4-0.9l0.8-0.4c0,0,0.2-0.4,0.5-0.8c0,0,0-0.1,0.1-0.1c0,0,0-0.1,0.1-0.1
			c-0.3-0.6-0.6-1.2-1-1.7c0,0.1-0.1,0.1-0.1,0.2c0,0,0,0.1-0.1,0.1c-0.1,0.2-0.2,0.3-0.2,0.3l-1.1,0.7c-0.2-0.3-0.4-0.6-0.6-0.9
			l0.7-0.5c0,0,0.2-0.4,0.3-0.8c0,0,0-0.1,0-0.1c0,0,0-0.1,0-0.1c-0.4-0.5-0.8-1-1.3-1.5c0,0,0,0.1,0,0.1c0,0,0,0,0,0
			c0,0,0,0.1,0,0.1c-0.1,0.3-0.1,0.5-0.1,0.5l-0.9,0.8c-0.2-0.3-0.5-0.5-0.7-0.7l0.6-0.7c0,0,0.1-0.4,0.2-0.9c0,0,0-0.1,0-0.1
			c0,0,0-0.1,0-0.1c-0.5-0.4-1-0.9-1.5-1.3c0,0.1,0,0.2,0,0.2c0,0.3,0,0.5,0,0.5l-0.8,1c-0.3-0.2-0.5-0.4-0.8-0.6l0.5-0.8
			c0,0,0-0.4,0-0.9l0-0.1c0,0,0-0.1,0-0.2c-0.6-0.4-1.1-0.7-1.7-1c0,0.1,0,0.2,0,0.2c0,0.3,0.1,0.5,0.1,0.5l-0.6,1.1
			c-0.3-0.2-0.6-0.3-0.9-0.5l0.4-0.8c0,0,0-0.1,0-0.3c0-0.2-0.1-0.4-0.1-0.6c0,0,0-0.1,0-0.1c0,0,0-0.1,0-0.1
			c-0.6-0.3-1.2-0.5-1.9-0.7c0,0.1,0,0.2,0.1,0.2c0.1,0.3,0.1,0.5,0.1,0.5l-0.4,1.2c-0.3-0.1-0.6-0.2-1-0.3l0.2-0.9
			c0,0-0.1-0.4-0.3-0.8c0,0,0-0.1,0-0.1c0,0,0-0.1,0-0.1c-0.7-0.1-1.3-0.3-2-0.3c0,0.1,0.1,0.1,0.1,0.2c0.1,0.3,0.2,0.5,0.2,0.5
			l-0.2,1.2c-0.3,0-0.7-0.1-1-0.1l0.1-0.9c0,0-0.2-0.4-0.4-0.8c0,0,0,0,0-0.1c0,0-0.1-0.1-0.1-0.1c-0.2,0-0.3,0-0.5,0
			c-0.5,0-1,0-1.5,0c0,0.1,0.1,0.1,0.1,0.2c0.2,0.2,0.3,0.4,0.3,0.4l0,1.2c-0.3,0-0.7,0-1,0.1l-0.1-0.9c0,0-0.3-0.3-0.6-0.7
			c0,0,0,0-0.1-0.1c0,0-0.1-0.1-0.1-0.1c-0.7,0.1-1.3,0.2-2,0.4c0.1,0.1,0.1,0.1,0.2,0.2c0.2,0.2,0.4,0.4,0.4,0.4l0.3,1.2
			c-0.3,0.1-0.7,0.1-1,0.2l-0.2-0.9c0,0-0.1-0.1-0.2-0.2c-0.1-0.1-0.3-0.2-0.4-0.4c0,0,0,0-0.1-0.1c0,0-0.1-0.1-0.1-0.1
			c-0.6,0.2-1.3,0.4-1.9,0.7c0.1,0,0.1,0.1,0.2,0.1c0.2,0.2,0.4,0.3,0.4,0.3l0.5,1.2c-0.3,0.1-0.6,0.3-0.9,0.4l-0.4-0.8
			c0,0-0.4-0.2-0.8-0.5c0,0-0.1,0-0.1-0.1c0,0-0.1,0-0.1-0.1c-0.6,0.3-1.2,0.6-1.7,1c0.1,0,0.1,0.1,0.2,0.1c0,0,0.1,0,0.1,0.1
			c0.2,0.1,0.3,0.2,0.3,0.2l0.7,1.1c-0.3,0.2-0.6,0.4-0.9,0.6l-0.5-0.7c0,0-0.4-0.2-0.8-0.3c0,0-0.1,0-0.1,0c0,0-0.1,0-0.1,0
			c-0.5,0.4-0.9,0.7-1.4,1.2c-0.1,0-0.1,0.1-0.2,0.1c0.1,0,0.2,0,0.2,0.1c0.3,0.1,0.5,0.1,0.5,0.1l0.8,0.9c-0.3,0.2-0.5,0.5-0.7,0.7
			l-0.7-0.6c0,0-0.4-0.1-0.9-0.2c0,0-0.1,0-0.1,0c0,0-0.1,0-0.1,0c-0.4,0.5-0.9,1-1.3,1.5c0.1,0,0.2,0,0.2,0c0.3,0,0.5,0,0.5,0
			l1,0.8c-0.2,0.3-0.4,0.5-0.6,0.8l-0.8-0.5c0,0-0.4,0-0.9,0l-0.1,0c0,0-0.1,0-0.2,0c-0.4,0.6-0.7,1.1-1,1.7c0.1,0,0.2,0,0.2,0
			c0.3,0,0.5-0.1,0.5-0.1l1.1,0.6c-0.2,0.3-0.3,0.6-0.5,0.9l-0.8-0.4c0,0-0.1,0-0.3,0c-0.2,0-0.4,0.1-0.6,0.1c0,0-0.1,0-0.1,0
			c0,0-0.1,0-0.1,0c-0.3,0.6-0.5,1.2-0.7,1.9c0.1,0,0.2,0,0.2-0.1c0.3-0.1,0.5-0.1,0.5-0.1l1.2,0.4c-0.1,0.3-0.2,0.6-0.3,1l-0.9-0.2
			c0,0-0.4,0.1-0.8,0.3c0,0-0.1,0-0.1,0c0,0-0.1,0-0.1,0c-0.1,0.7-0.3,1.3-0.3,2c0.1,0,0.1-0.1,0.2-0.1c0.3-0.1,0.5-0.2,0.5-0.2
			l1.2,0.2c0,0.3-0.1,0.7-0.1,1l-0.9-0.1c0,0-0.4,0.2-0.8,0.4c0,0,0,0-0.1,0c0,0-0.1,0.1-0.1,0.1c0,0.2,0,0.3,0,0.5c0,0.5,0,1,0,1.5
			c0.1,0,0.1-0.1,0.2-0.1c0.2-0.2,0.4-0.3,0.4-0.3L168.9,71z"/>
		<path class="st14" d="M200.4,60.4c0.2,0.3,0.4,0.6,0.6,0.9l1.1-0.7c0,0,0.1-0.1,0.2-0.3c0,0,0-0.1,0.1-0.1
			c-0.2-0.4-0.5-0.7-0.8-1.1c-0.2,0.4-0.3,0.8-0.3,0.8L200.4,60.4z"/>
		<path class="st14" d="M171,70.1c0.2-8.4,7.2-15,15.6-14.8c8.4,0.2,15,7.2,14.8,15.6c-0.2,8.4-7.2,15-15.6,14.8
			C177.5,85.4,170.8,78.5,171,70.1"/>
		<path class="st14" d="M169.4,70c0.2-9.3,8-16.7,17.3-16.5c9.3,0.2,16.7,8,16.5,17.3c-0.2,9.3-8,16.7-17.3,16.5
			S169.1,79.3,169.4,70 M169.5,70c-0.2,9.2,7.1,16.9,16.3,17.1c9.2,0.2,16.9-7.1,17.1-16.3c0.2-9.2-7.1-16.9-16.3-17.1
			C177.5,53.5,169.8,60.8,169.5,70"/>
		<path class="st14" d="M197.8,83.3l0.8,0.9c0,0,0.2,0.1,0.5,0.1c0.3-0.3,0.7-0.6,1-0.9c-0.5-0.1-0.9-0.2-0.9-0.2l-0.7-0.6
			C198.3,82.9,198.1,83.1,197.8,83.3"/>
		<path class="st14" d="M199.9,81.1l1,0.8c0,0,0.2,0,0.5,0c0.3-0.4,0.5-0.7,0.8-1.1c-0.5,0-0.9,0-0.9,0l-0.8-0.5
			C200.3,80.6,200.1,80.9,199.9,81.1"/>
		<path class="st14" d="M192.7,86.5c0.3-0.1,0.6-0.3,0.9-0.4L194,87c0,0,0.4,0.2,0.8,0.5c-0.4,0.2-0.8,0.4-1.2,0.6
			c-0.2-0.2-0.4-0.3-0.4-0.3L192.7,86.5z"/>
		<path class="st14" d="M196.1,86.2l-0.7-1.1c0.3-0.2,0.6-0.4,0.9-0.6l0.5,0.7c0,0,0.4,0.2,0.8,0.3c-0.4,0.3-0.7,0.5-1.1,0.8
			c0,0-0.1,0-0.1-0.1C196.2,86.3,196.1,86.2,196.1,86.2"/>
		<path class="st14" d="M201.6,78.6l1.1,0.6c0,0,0.2,0,0.5-0.1c0.2-0.4,0.4-0.8,0.6-1.2c-0.2,0-0.4,0.1-0.6,0.1c-0.2,0-0.3,0-0.3,0
			l-0.8-0.4C201.9,78,201.7,78.3,201.6,78.6"/>
		<path class="st14" d="M203.5,68.8c0,0.3,0.1,0.7,0.1,1l1.2,0c0,0,0.2-0.1,0.4-0.3c0-0.4-0.1-0.9-0.1-1.3c-0.3,0.3-0.7,0.6-0.7,0.6
			L203.5,68.8z"/>
		<path class="st14" d="M189.8,87.4c0.3-0.1,0.7-0.1,1-0.2l0.2,0.9c0,0,0.1,0.1,0.2,0.2c0.1,0.1,0.3,0.2,0.4,0.4
			c-0.4,0.1-0.9,0.2-1.3,0.3c-0.2-0.2-0.4-0.4-0.4-0.4L189.8,87.4z"/>
		<path class="st14" d="M202.7,75.8l1.2,0.4c0,0,0.2-0.1,0.5-0.1c0.1-0.4,0.3-0.8,0.4-1.3c-0.4,0.2-0.8,0.3-0.8,0.3l-0.9-0.2
			C202.9,75.2,202.8,75.5,202.7,75.8"/>
		<path class="st14" d="M203,65.9c0.1,0.3,0.2,0.7,0.2,1l1.2-0.3c0,0,0.2-0.2,0.4-0.4c-0.1-0.4-0.2-0.9-0.3-1.3
			c-0.1,0.2-0.3,0.3-0.4,0.4c-0.1,0.1-0.2,0.2-0.2,0.2L203,65.9z"/>
		<path class="st14" d="M201.9,63c0.1,0.3,0.3,0.6,0.4,0.9l1.2-0.5c0,0,0.1-0.2,0.3-0.4c-0.2-0.4-0.4-0.8-0.6-1.2
			c-0.2,0.4-0.5,0.8-0.5,0.8L201.9,63z"/>
		<path class="st14" d="M203.4,72.9l1.2,0.2c0,0,0.2-0.1,0.5-0.2c0.1-0.4,0.1-0.9,0.1-1.3c-0.4,0.2-0.8,0.4-0.8,0.4l-0.9-0.1
			C203.5,72.2,203.5,72.5,203.4,72.9"/>
		<path class="st14" d="M170.5,80.3l1.1-0.7c0.2,0.3,0.4,0.6,0.6,0.9l-0.7,0.5c0,0-0.2,0.4-0.3,0.8c-0.3-0.4-0.5-0.7-0.8-1.1
			c0,0,0-0.1,0.1-0.1C170.4,80.4,170.5,80.3,170.5,80.3"/>
		<path class="st14" d="M170.2,76.9c0.1,0.3,0.3,0.6,0.4,0.9l-0.8,0.4c0,0-0.2,0.4-0.5,0.8c-0.2-0.4-0.4-0.8-0.6-1.2
			c0.2-0.2,0.3-0.4,0.3-0.4L170.2,76.9z"/>
		<path class="st14" d="M186.8,87.8c0.3,0,0.7,0,1-0.1l0.1,0.9c0,0,0.3,0.3,0.6,0.7c-0.4,0.1-0.9,0.1-1.3,0.1
			c-0.2-0.2-0.3-0.4-0.3-0.4L186.8,87.8z"/>
		<path class="st14" d="M173.3,82c0.2,0.3,0.5,0.5,0.7,0.7l-0.6,0.6c0,0-0.1,0.4-0.2,0.9c-0.3-0.3-0.6-0.6-0.9-1
			c0.1-0.3,0.1-0.5,0.1-0.5L173.3,82z"/>
		<path class="st14" d="M167.7,71.1l1.2,0c0,0.3,0,0.7,0.1,1l-0.9,0.1c0,0-0.3,0.3-0.7,0.6c-0.1-0.4-0.1-0.9-0.1-1.3
			C167.5,71.2,167.7,71.1,167.7,71.1"/>
		<path class="st14" d="M169.3,74c0.1,0.3,0.1,0.7,0.2,1l-0.9,0.2c0,0-0.1,0.1-0.2,0.2c-0.1,0.1-0.2,0.3-0.4,0.4
			c-0.1-0.4-0.2-0.8-0.3-1.3c0.2-0.2,0.4-0.4,0.4-0.4L169.3,74z"/>
		<path class="st14" d="M180.9,86.9c0.3,0.1,0.6,0.2,1,0.3l-0.2,0.9c0,0,0.1,0.4,0.3,0.8c-0.4-0.1-0.9-0.2-1.3-0.4
			c-0.1-0.3-0.1-0.5-0.1-0.5L180.9,86.9z"/>
		<path class="st14" d="M183.8,87.6c0.3,0,0.7,0.1,1,0.1l-0.1,0.9c0,0,0.2,0.4,0.4,0.8c-0.4,0-0.9-0.1-1.3-0.1
			c-0.1-0.3-0.2-0.5-0.2-0.5L183.8,87.6z"/>
		<path class="st14" d="M178.1,85.7c0.3,0.2,0.6,0.3,0.9,0.5l-0.4,0.8c0,0,0,0.1,0,0.3c0,0.2,0.1,0.4,0.1,0.6
			c-0.4-0.2-0.8-0.4-1.2-0.6c0-0.3-0.1-0.5-0.1-0.5L178.1,85.7z"/>
		<path class="st14" d="M175.5,84.1c0.3,0.2,0.5,0.4,0.8,0.6l-0.5,0.8c0,0,0,0.4,0,0.9c-0.4-0.2-0.7-0.5-1.1-0.8c0-0.3,0-0.5,0-0.5
			L175.5,84.1z"/>
		<path class="st14" d="M174.9,55.2c0.4,0.2,0.8,0.3,0.8,0.3l0.5,0.7c0.3-0.2,0.6-0.4,0.9-0.6l-0.7-1.1c0,0-0.1-0.1-0.3-0.2
			c0,0-0.1,0-0.1-0.1C175.6,54.7,175.2,54.9,174.9,55.2"/>
		<path class="st14" d="M187.7,52.2l-0.1,0.9c0.3,0,0.7,0.1,1,0.1l0.2-1.2c0,0-0.1-0.2-0.2-0.5c-0.4-0.1-0.9-0.1-1.3-0.1
			C187.5,51.9,187.7,52.2,187.7,52.2"/>
		<path class="st14" d="M193.5,54.7c0.3,0.1,0.6,0.3,0.9,0.5L195,54c0,0,0-0.2-0.1-0.5c-0.4-0.2-0.8-0.4-1.2-0.6
			c0,0.2,0.1,0.4,0.1,0.6c0,0.2,0,0.3,0,0.3L193.5,54.7z"/>
		<path class="st14" d="M190.9,52.8l-0.2,0.9c0.3,0.1,0.7,0.2,1,0.3l0.4-1.2c0,0-0.1-0.2-0.1-0.5c-0.4-0.1-0.8-0.3-1.3-0.4
			C190.8,52.4,190.9,52.8,190.9,52.8"/>
		<path class="st14" d="M180.8,52.2c0.2,0.1,0.3,0.3,0.4,0.4c0.1,0.1,0.2,0.2,0.2,0.2l0.2,0.9c0.3-0.1,0.7-0.2,1-0.2l-0.3-1.2
			c0,0-0.2-0.2-0.4-0.4C181.6,52,181.2,52.1,180.8,52.2"/>
		<path class="st14" d="M172.6,59.7c-0.2,0.3-0.4,0.5-0.6,0.8l-0.8-0.5c0,0-0.4,0-0.9,0c0.2-0.4,0.5-0.7,0.8-1.1c0.3,0,0.5,0,0.5,0
			L172.6,59.7z"/>
		<path class="st14" d="M169.8,65.1c-0.1,0.3-0.2,0.7-0.3,1l-0.9-0.2c0,0-0.4,0.1-0.8,0.3c0.1-0.4,0.2-0.9,0.4-1.3
			c0.3-0.1,0.5-0.1,0.5-0.1L169.8,65.1z"/>
		<path class="st14" d="M184,51.6c0.3,0.3,0.6,0.7,0.6,0.7l0.1,0.9c0.3,0,0.7-0.1,1-0.1l0-1.2c0,0-0.1-0.2-0.3-0.4
			C184.9,51.5,184.4,51.5,184,51.6"/>
		<path class="st14" d="M177.7,53.5c0.4,0.2,0.8,0.5,0.8,0.5l0.4,0.8c0.3-0.1,0.6-0.3,0.9-0.4l-0.5-1.2c0,0-0.2-0.1-0.4-0.3
			C178.5,53.1,178.1,53.3,177.7,53.5"/>
		<path class="st14" d="M170.9,62.3c-0.2,0.3-0.3,0.6-0.5,0.9l-0.8-0.4c0,0-0.1,0-0.3,0c-0.2,0-0.4,0.1-0.6,0.1
			c0.2-0.4,0.4-0.8,0.6-1.2c0.3,0,0.5-0.1,0.5-0.1L170.9,62.3z"/>
		<path class="st14" d="M169.1,68c0,0.3-0.1,0.7-0.1,1l-0.9-0.1c0,0-0.4,0.2-0.8,0.4c0-0.4,0.1-0.9,0.1-1.3c0.3-0.1,0.5-0.2,0.5-0.2
			L169.1,68z"/>
		<path class="st14" d="M196.1,56.2c0.3,0.2,0.6,0.4,0.8,0.6l0.8-1c0,0,0-0.2,0-0.5c-0.4-0.3-0.7-0.5-1.1-0.8c0,0.5,0,0.9,0,0.9
			L196.1,56.2z"/>
		<path class="st14" d="M174.7,57.5c-0.3,0.2-0.5,0.5-0.7,0.7l-0.6-0.6c0,0-0.4-0.1-0.9-0.2c0.3-0.3,0.6-0.6,1-0.9
			c0.3,0.1,0.5,0.1,0.5,0.1L174.7,57.5z"/>
		<path class="st14" d="M198.5,58.1c0.2,0.2,0.5,0.5,0.7,0.7l0.9-0.8c0,0,0.1-0.2,0.1-0.5c-0.3-0.3-0.6-0.7-0.9-1
			c-0.1,0.5-0.2,0.9-0.2,0.9L198.5,58.1z"/>
		<g class="st15">
			<g>
				<defs>
					<rect id="SVGID_13_" x="198.5" y="56.6" width="1.8" height="2.3"/>
				</defs>
				<clipPath id="SVGID_14_">
					<use xlink:href="#SVGID_13_"  style="overflow:visible;"/>
				</clipPath>
				<path class="st16" d="M198.5,58.1c0.2,0.2,0.5,0.5,0.7,0.7l0.9-0.8c0,0,0.1-0.2,0.1-0.5c-0.3-0.3-0.6-0.7-0.9-1
					c-0.1,0.5-0.2,0.9-0.2,0.9L198.5,58.1z"/>
			</g>
		</g>
		<g class="st17">
			<g>
				<defs>
					<rect id="SVGID_15_" x="167.5" y="74.5" width="0.2" height="0.3"/>
				</defs>
				<clipPath id="SVGID_16_">
					<use xlink:href="#SVGID_15_"  style="overflow:visible;"/>
				</clipPath>
				<path class="st18" d="M167.7,74.7c0,0-0.1,0.1-0.2,0.2c0-0.1,0-0.2-0.1-0.3C167.6,74.6,167.6,74.6,167.7,74.7"/>
			</g>
		</g>
		<path class="st19" d="M171.9,70.4c0,7.9,6.4,14.3,14.3,14.3c7.9,0,14.3-6.4,14.3-14.3c0-7.9-6.4-14.3-14.3-14.3
			C178.3,56.1,171.9,62.5,171.9,70.4"/>
		<path class="st14" d="M174.4,70.4c0,6.5,5.3,11.8,11.8,11.8c6.5,0,11.8-5.3,11.8-11.8c0-6.5-5.3-11.8-11.8-11.8
			C179.7,58.6,174.4,63.9,174.4,70.4"/>
		<polygon class="st20" points="185.6,72.4 186.9,68.4 174.6,65.2 173.8,67.8 		"/>
		<polygon class="st20" points="187.9,71.6 184.6,69.2 177.7,79.9 179.9,81.4 		"/>
		<polygon class="st20" points="187.9,69.2 184.6,71.6 192.6,81.4 194.8,79.9 		"/>
		<polygon class="st20" points="185.6,68.4 186.9,72.4 198.7,67.8 197.9,65.2 		"/>
		<polygon class="st20" points="184.2,70.4 188.3,70.4 187.6,57.7 184.9,57.7 		"/>
		<path class="st19" d="M181.9,70.4c0,2.4,1.9,4.3,4.3,4.3c2.4,0,4.3-1.9,4.3-4.3s-1.9-4.3-4.3-4.3
			C183.9,66.1,181.9,68.1,181.9,70.4"/>
	</g>
	<g class="st0">
		<defs>
			<path id="SVGID_17_" d="M45.8,54.4c-7.6,0-13.9,5.9-14.5,13.5L31,71.2l-0.4,5.5c0,17.3,45,17.3,45,0L75,71.2l-0.3-3.5
				c-0.7-7.5-7-13.2-14.5-13.2H45.8z"/>
		</defs>
		<clipPath id="SVGID_18_">
			<use xlink:href="#SVGID_17_"  style="overflow:visible;"/>
		</clipPath>
		<path class="st21" d="M35.8,71c0,0.3,0,0.7,0.1,1l-0.9,0.1c0,0-0.3,0.3-0.7,0.6c0,0,0,0-0.1,0.1c0,0-0.1,0.1-0.1,0.1
			c0.1,0.6,0.2,1.1,0.3,1.7c0,0.1,0,0.2,0.1,0.3l0.2-0.2l0,0c0.2-0.2,0.4-0.4,0.4-0.4l1.2-0.3c0.1,0.3,0.2,0.7,0.2,1l-0.8,0.2
			l-0.1,0c0,0-0.1,0.1-0.2,0.2c-0.1,0.1-0.2,0.3-0.4,0.4c0,0,0,0-0.1,0.1c0,0-0.1,0.1-0.1,0.1c0.2,0.6,0.4,1.3,0.7,1.9
			c0-0.1,0.1-0.1,0.1-0.2c0.2-0.2,0.3-0.4,0.3-0.4l1.2-0.5c0.1,0.3,0.3,0.6,0.4,0.9l-0.8,0.4c0,0-0.2,0.4-0.5,0.8c0,0,0,0.1-0.1,0.1
			c0,0,0,0.1-0.1,0.1c0.3,0.6,0.6,1.2,1,1.7c0-0.1,0.1-0.1,0.1-0.2c0,0,0-0.1,0.1-0.1c0.1-0.2,0.2-0.3,0.2-0.3l1.1-0.7
			c0.2,0.3,0.4,0.6,0.6,0.9L38.2,81c0,0-0.2,0.4-0.3,0.8c0,0,0,0.1,0,0.1c0,0,0,0.1,0,0.1c0.4,0.5,0.8,1,1.3,1.5
			c0-0.1,0-0.2,0.1-0.2c0.1-0.3,0.1-0.5,0.1-0.5l0.9-0.8c0.2,0.3,0.5,0.5,0.7,0.7l-0.6,0.7c0,0-0.1,0.4-0.2,0.9c0,0,0,0.1,0,0.1
			c0,0,0,0.1,0,0.1c0.5,0.4,1,0.9,1.5,1.3c0-0.1,0-0.2,0-0.2c0-0.3,0-0.5,0-0.5l0.8-1c0.3,0.2,0.5,0.4,0.8,0.6l-0.5,0.8
			c0,0,0,0.4,0,0.9l0,0.1c0,0,0,0.1,0,0.2c0.6,0.4,1.1,0.7,1.7,1c0-0.1,0-0.2,0-0.2c0-0.3-0.1-0.5-0.1-0.5l0.6-1.1
			c0.3,0.2,0.6,0.3,0.9,0.5L45.5,87c0,0,0,0.1,0,0.3c0,0.2,0.1,0.4,0.1,0.6c0,0,0,0.1,0,0.1c0,0,0,0.1,0,0.1
			c0.6,0.3,1.2,0.5,1.9,0.7c0-0.1,0-0.2-0.1-0.2c-0.1-0.3-0.1-0.5-0.1-0.5l0.4-1.2c0.3,0.1,0.6,0.2,1,0.3l-0.2,0.9
			c0,0,0.1,0.4,0.3,0.8c0,0,0,0.1,0,0.1c0,0,0,0.1,0,0.1c0.7,0.1,1.3,0.3,2,0.3c0-0.1-0.1-0.1-0.1-0.2c-0.1-0.3-0.2-0.5-0.2-0.5
			l0.2-1.2c0.3,0,0.7,0.1,1,0.1l-0.1,0.9c0,0,0.2,0.4,0.4,0.8c0,0,0,0.1,0,0.1c0,0,0.1,0.1,0.1,0.1c0.2,0,0.3,0,0.5,0
			c0.5,0,1,0,1.5,0c0-0.1-0.1-0.1-0.1-0.2c-0.2-0.2-0.3-0.4-0.3-0.4l0-1.2c0.3,0,0.7,0,1-0.1l0.1,0.9c0,0,0.3,0.3,0.6,0.7
			c0,0,0,0,0.1,0.1c0,0,0.1,0.1,0.1,0.1c0.7-0.1,1.3-0.2,2-0.4c-0.1-0.1-0.1-0.1-0.2-0.2c-0.2-0.2-0.4-0.4-0.4-0.4l-0.3-1.2
			c0.3-0.1,0.7-0.2,1-0.2l0.2,0.9c0,0,0.1,0.1,0.2,0.2c0.1,0.1,0.3,0.2,0.4,0.4c0,0,0,0,0.1,0.1c0,0,0.1,0.1,0.1,0.1
			c0.6-0.2,1.3-0.4,1.9-0.7c-0.1,0-0.1-0.1-0.2-0.1c-0.2-0.2-0.4-0.3-0.4-0.3l-0.5-1.2c0.3-0.1,0.6-0.3,0.9-0.4l0.4,0.8
			c0,0,0.4,0.2,0.8,0.5c0,0,0.1,0,0.1,0.1c0,0,0.1,0,0.1,0.1c0.6-0.3,1.2-0.6,1.7-1c-0.1,0-0.1-0.1-0.2-0.1c0,0-0.1,0-0.1-0.1
			c-0.2-0.1-0.3-0.2-0.3-0.2l-0.7-1.1c0.3-0.2,0.6-0.4,0.9-0.6l0.5,0.7c0,0,0.4,0.2,0.8,0.3c0,0,0.1,0,0.1,0c0,0,0.1,0,0.1,0
			c0.3-0.2,0.7-0.5,1-0.8c0.2-0.2,0.4-0.3,0.6-0.5c0,0,0,0,0,0c-0.1,0-0.1,0-0.2,0c-0.3-0.1-0.5-0.1-0.5-0.1l-0.8-0.9
			c0.3-0.2,0.5-0.5,0.7-0.7l0.7,0.6c0,0,0.4,0.1,0.9,0.2c0,0,0.1,0,0.1,0l0.1,0c0.4-0.5,0.9-1,1.3-1.5c-0.1,0-0.2,0-0.2,0
			c-0.3,0-0.5,0-0.5,0l-1-0.8c0.2-0.3,0.4-0.5,0.6-0.8l0.8,0.5c0,0,0.4,0,0.9,0l0.1,0c0,0,0.1,0,0.2,0c0.4-0.6,0.7-1.1,1-1.7
			c-0.1,0-0.2,0-0.2,0c-0.3,0-0.5,0.1-0.5,0.1l-1.1-0.6c0.2-0.3,0.3-0.6,0.5-0.9l0.8,0.4c0,0,0.1,0,0.3,0c0.2,0,0.4-0.1,0.6-0.1
			c0,0,0.1,0,0.1,0c0,0,0.1,0,0.1,0c0.3-0.6,0.5-1.2,0.7-1.9c-0.1,0-0.2,0-0.2,0.1c-0.3,0.1-0.5,0.1-0.5,0.1l-1.2-0.4
			c0.1-0.3,0.2-0.7,0.3-1l0.9,0.2c0,0,0.4-0.1,0.8-0.3c0,0,0.1,0,0.1,0c0,0,0.1,0,0.1,0c0.1-0.7,0.3-1.3,0.3-2
			c-0.1,0-0.1,0.1-0.2,0.1c-0.3,0.1-0.5,0.2-0.5,0.2l-1.2-0.2c0-0.3,0.1-0.7,0.1-1l0.9,0.1c0,0,0.4-0.2,0.8-0.4c0,0,0,0,0.1,0
			c0,0,0.1-0.1,0.1-0.1c0-0.2,0-0.3,0-0.5c0-0.5,0-1,0-1.5c-0.1,0-0.1,0.1-0.2,0.1c-0.2,0.2-0.4,0.3-0.4,0.3l-1.2,0
			c0-0.3,0-0.7-0.1-1l0.9-0.1c0,0,0.3-0.3,0.7-0.6c0,0,0,0,0.1-0.1c0,0,0.1-0.1,0.1-0.1c-0.1-0.7-0.2-1.3-0.4-2
			c-0.1,0.1-0.1,0.1-0.2,0.2c-0.2,0.2-0.4,0.4-0.4,0.4l-1.2,0.3c-0.1-0.3-0.1-0.7-0.2-1l0.9-0.2c0,0,0.1-0.1,0.2-0.2
			c0.1-0.1,0.2-0.3,0.4-0.4c0,0,0,0,0.1-0.1c0,0,0.1-0.1,0.1-0.1c-0.2-0.6-0.4-1.3-0.7-1.9c0,0.1-0.1,0.1-0.1,0.2
			c-0.2,0.2-0.3,0.4-0.3,0.4L69.2,64c-0.1-0.3-0.3-0.6-0.4-0.9l0.8-0.4c0,0,0.2-0.4,0.5-0.8c0,0,0-0.1,0.1-0.1c0,0,0-0.1,0.1-0.1
			c-0.3-0.6-0.6-1.2-1-1.7c0,0.1-0.1,0.1-0.1,0.2c0,0,0,0.1-0.1,0.1c-0.1,0.2-0.2,0.3-0.2,0.3l-1.1,0.7c-0.2-0.3-0.4-0.6-0.6-0.9
			l0.7-0.5c0,0,0.2-0.4,0.3-0.8c0,0,0-0.1,0-0.1c0,0,0-0.1,0-0.1c-0.4-0.5-0.8-1-1.3-1.5c0,0,0,0.1,0,0.1c0,0,0,0,0,0
			c0,0,0,0.1,0,0.1C67,57.8,66.9,58,66.9,58L66,58.9c-0.2-0.3-0.5-0.5-0.7-0.7l0.6-0.7c0,0,0.1-0.4,0.2-0.9c0,0,0-0.1,0-0.1
			c0,0,0-0.1,0-0.1c-0.5-0.4-1-0.9-1.5-1.3c0,0.1,0,0.2,0,0.2c0,0.3,0,0.5,0,0.5l-0.8,1c-0.3-0.2-0.5-0.4-0.8-0.6l0.5-0.8
			c0,0,0-0.4,0-0.9l0-0.1c0,0,0-0.1,0-0.2c-0.6-0.4-1.1-0.7-1.7-1c0,0.1,0,0.2,0,0.2c0,0.3,0.1,0.5,0.1,0.5l-0.6,1.1
			c-0.3-0.2-0.6-0.3-0.9-0.5l0.4-0.8c0,0,0-0.1,0-0.3c0-0.2-0.1-0.4-0.1-0.6c0,0,0-0.1,0-0.1c0,0,0-0.1,0-0.1
			c-0.6-0.3-1.2-0.5-1.9-0.7c0,0.1,0,0.2,0.1,0.2c0.1,0.3,0.1,0.5,0.1,0.5l-0.4,1.2c-0.3-0.1-0.6-0.2-1-0.3l0.2-0.9
			c0,0-0.1-0.4-0.3-0.8c0,0,0-0.1,0-0.1c0,0,0-0.1,0-0.1c-0.7-0.1-1.3-0.3-2-0.3c0,0.1,0.1,0.1,0.1,0.2c0.1,0.3,0.2,0.5,0.2,0.5
			l-0.2,1.2c-0.3,0-0.7-0.1-1-0.1l0.1-0.9c0,0-0.2-0.4-0.4-0.8c0,0,0,0,0-0.1c0,0-0.1-0.1-0.1-0.1c-0.2,0-0.3,0-0.5,0
			c-0.5,0-1,0-1.5,0c0,0.1,0.1,0.1,0.1,0.2c0.2,0.2,0.3,0.4,0.3,0.4l0,1.2c-0.3,0-0.7,0-1,0.1l-0.1-0.9c0,0-0.3-0.3-0.6-0.7
			c0,0,0,0-0.1-0.1c0,0-0.1-0.1-0.1-0.1c-0.7,0.1-1.3,0.2-2,0.4c0.1,0.1,0.1,0.1,0.2,0.2c0.2,0.2,0.4,0.4,0.4,0.4l0.3,1.2
			c-0.3,0.1-0.7,0.1-1,0.2l-0.2-0.9c0,0-0.1-0.1-0.2-0.2c-0.1-0.1-0.3-0.2-0.4-0.4c0,0,0,0-0.1-0.1c0,0-0.1-0.1-0.1-0.1
			c-0.6,0.2-1.3,0.4-1.9,0.7c0.1,0,0.1,0.1,0.2,0.1c0.2,0.2,0.4,0.3,0.4,0.3l0.5,1.2c-0.3,0.1-0.6,0.3-0.9,0.4l-0.4-0.8
			c0,0-0.4-0.2-0.8-0.5c0,0-0.1,0-0.1-0.1c0,0-0.1,0-0.1-0.1c-0.6,0.3-1.2,0.6-1.7,1c0.1,0,0.1,0.1,0.2,0.1c0,0,0.1,0,0.1,0.1
			c0.2,0.1,0.3,0.2,0.3,0.2l0.7,1.1c-0.3,0.2-0.6,0.4-0.9,0.6l-0.5-0.7c0,0-0.4-0.2-0.8-0.3c0,0-0.1,0-0.1,0c0,0-0.1,0-0.1,0
			c-0.5,0.4-0.9,0.7-1.4,1.2c0,0-0.1,0.1-0.2,0.1c0.1,0,0.2,0,0.2,0.1c0.3,0.1,0.5,0.1,0.5,0.1l0.8,0.9c-0.3,0.2-0.5,0.5-0.7,0.7
			l-0.7-0.6c0,0-0.4-0.1-0.9-0.2c0,0-0.1,0-0.1,0c0,0-0.1,0-0.1,0c-0.5,0.5-0.9,1-1.3,1.5c0.1,0,0.2,0,0.2,0c0.3,0,0.5,0,0.5,0
			l1,0.8c-0.2,0.3-0.4,0.5-0.6,0.8L38.1,60c0,0-0.4,0-0.9,0l-0.1,0c0,0-0.1,0-0.2,0c-0.4,0.6-0.7,1.1-1,1.7c0.1,0,0.2,0,0.2,0
			c0.3,0,0.5-0.1,0.5-0.1l1.1,0.6c-0.2,0.3-0.3,0.6-0.5,0.9l-0.8-0.4c0,0-0.1,0-0.3,0c-0.2,0-0.4,0.1-0.6,0.1c0,0-0.1,0-0.1,0
			c0,0-0.1,0-0.1,0c-0.3,0.6-0.5,1.2-0.7,1.9c0.1,0,0.2,0,0.2-0.1c0.3-0.1,0.5-0.1,0.5-0.1l1.2,0.4c-0.1,0.3-0.2,0.6-0.3,1l-0.9-0.2
			c0,0-0.4,0.1-0.8,0.3c0,0-0.1,0-0.1,0c0,0-0.1,0-0.1,0c-0.1,0.7-0.3,1.3-0.3,2c0.1,0,0.1-0.1,0.2-0.1c0.3-0.1,0.5-0.2,0.5-0.2
			l1.2,0.2c0,0.3-0.1,0.7-0.1,1l-0.9-0.1c0,0-0.4,0.2-0.8,0.4c0,0-0.1,0-0.1,0c0,0-0.1,0.1-0.1,0.1c0,0.2,0,0.3,0,0.5
			c0,0.5,0,1,0,1.5c0.1,0,0.1-0.1,0.2-0.1c0.2-0.2,0.4-0.3,0.4-0.3L35.8,71z"/>
		<path class="st22" d="M67.3,60.4c0.2,0.3,0.4,0.6,0.6,0.9l1.1-0.7c0,0,0.1-0.1,0.2-0.3c0,0,0-0.1,0.1-0.1
			c-0.2-0.4-0.5-0.7-0.8-1.1c-0.2,0.4-0.3,0.8-0.3,0.8L67.3,60.4z"/>
		<path class="st22" d="M37.9,70.1c0.2-8.4,7.2-15,15.6-14.8c8.4,0.2,15,7.2,14.8,15.6c-0.2,8.4-7.2,15-15.6,14.8
			C44.3,85.4,37.7,78.5,37.9,70.1"/>
		<path class="st22" d="M36.2,70c0.2-9.3,8-16.7,17.3-16.5c9.3,0.2,16.7,8,16.5,17.3c-0.2,9.3-8,16.7-17.3,16.5
			C43.4,87.1,36,79.3,36.2,70 M36.4,70c-0.2,9.2,7.1,16.9,16.3,17.1c9.2,0.2,16.9-7.1,17.1-16.3C70,61.6,62.7,54,53.5,53.7
			S36.6,60.8,36.4,70"/>
		<path class="st22" d="M64.7,83.3l0.8,0.9c0,0,0.2,0.1,0.5,0.1c0.3-0.3,0.7-0.6,1-0.9c-0.5-0.1-0.9-0.2-0.9-0.2l-0.7-0.6
			C65.2,82.9,64.9,83.1,64.7,83.3"/>
		<path class="st22" d="M66.8,81.1l1,0.8c0,0,0.2,0,0.5,0c0.3-0.4,0.5-0.7,0.8-1.1c-0.5,0-0.9,0-0.9,0l-0.8-0.5
			C67.2,80.6,67,80.9,66.8,81.1"/>
		<path class="st22" d="M59.6,86.5c0.3-0.1,0.6-0.3,0.9-0.4l0.4,0.8c0,0,0.4,0.2,0.8,0.5c-0.4,0.2-0.8,0.4-1.2,0.6
			c-0.2-0.2-0.4-0.3-0.4-0.3L59.6,86.5z"/>
		<path class="st22" d="M62.9,86.2l-0.7-1.1c0.3-0.2,0.6-0.4,0.9-0.6l0.5,0.7c0,0,0.4,0.2,0.8,0.3c-0.4,0.3-0.7,0.5-1.1,0.8
			c0,0-0.1,0-0.1-0.1C63.1,86.3,62.9,86.2,62.9,86.2"/>
		<path class="st22" d="M68.4,78.6l1.1,0.6c0,0,0.2,0,0.5-0.1c0.2-0.4,0.4-0.8,0.6-1.2C70.4,78,70.2,78,70,78c-0.2,0-0.3,0-0.3,0
			l-0.8-0.4C68.7,78,68.6,78.3,68.4,78.6"/>
		<path class="st22" d="M70.4,68.8c0,0.3,0.1,0.7,0.1,1l1.2,0c0,0,0.2-0.1,0.4-0.3c0-0.4-0.1-0.9-0.1-1.3c-0.3,0.3-0.7,0.6-0.7,0.6
			L70.4,68.8z"/>
		<path class="st22" d="M56.7,87.4c0.3-0.1,0.7-0.1,1-0.2l0.2,0.9c0,0,0.1,0.1,0.2,0.2c0.1,0.1,0.3,0.2,0.4,0.4
			c-0.4,0.1-0.9,0.2-1.3,0.3c-0.2-0.2-0.4-0.4-0.4-0.4L56.7,87.4z"/>
		<path class="st22" d="M69.6,75.8l1.2,0.4c0,0,0.2-0.1,0.5-0.1c0.1-0.4,0.3-0.8,0.4-1.3c-0.4,0.2-0.8,0.3-0.8,0.3l-0.9-0.2
			C69.8,75.2,69.7,75.5,69.6,75.8"/>
		<path class="st22" d="M69.8,65.9c0.1,0.3,0.2,0.7,0.2,1l1.2-0.3c0,0,0.2-0.2,0.4-0.4c-0.1-0.4-0.2-0.9-0.3-1.3
			c-0.1,0.2-0.3,0.3-0.4,0.4c-0.1,0.1-0.2,0.2-0.2,0.2L69.8,65.9z"/>
		<path class="st22" d="M68.8,63c0.1,0.3,0.3,0.6,0.4,0.9l1.2-0.5c0,0,0.1-0.2,0.3-0.4c-0.2-0.4-0.4-0.8-0.6-1.2
			c-0.2,0.4-0.5,0.8-0.5,0.8L68.8,63z"/>
		<path class="st22" d="M70.3,72.9l1.2,0.2c0,0,0.2-0.1,0.5-0.2c0.1-0.4,0.1-0.9,0.1-1.3c-0.4,0.2-0.8,0.4-0.8,0.4l-0.9-0.1
			C70.4,72.2,70.3,72.5,70.3,72.9"/>
		<path class="st22" d="M37.3,80.3l1.1-0.7c0.2,0.3,0.4,0.6,0.6,0.9L38.2,81c0,0-0.2,0.4-0.3,0.8c-0.3-0.4-0.5-0.7-0.8-1.1
			c0,0,0-0.1,0.1-0.1C37.3,80.4,37.3,80.3,37.3,80.3"/>
		<path class="st22" d="M37,76.9c0.1,0.3,0.3,0.6,0.4,0.9l-0.8,0.4c0,0-0.2,0.4-0.5,0.8c-0.2-0.4-0.4-0.8-0.6-1.2
			c0.2-0.2,0.3-0.4,0.3-0.4L37,76.9z"/>
		<path class="st22" d="M53.7,87.8c0.3,0,0.7,0,1-0.1l0.1,0.9c0,0,0.3,0.3,0.6,0.7c-0.4,0.1-0.9,0.1-1.3,0.1
			c-0.2-0.2-0.3-0.4-0.3-0.4L53.7,87.8z"/>
		<path class="st22" d="M40.2,82c0.2,0.3,0.5,0.5,0.7,0.7l-0.6,0.6c0,0-0.1,0.4-0.2,0.9c-0.3-0.3-0.6-0.6-0.9-1
			c0.1-0.3,0.1-0.5,0.1-0.5L40.2,82z"/>
		<path class="st22" d="M34.5,71.1l1.2,0c0,0.3,0,0.7,0.1,1l-0.9,0.1c0,0-0.3,0.3-0.7,0.6c0-0.4-0.1-0.9-0.1-1.3
			C34.4,71.2,34.5,71.1,34.5,71.1"/>
		<path class="st22" d="M36.1,74c0.1,0.3,0.1,0.7,0.2,1l-0.9,0.2c0,0-0.1,0.1-0.2,0.2c-0.1,0.1-0.2,0.3-0.4,0.4
			c-0.1-0.4-0.2-0.8-0.3-1.3c0.2-0.2,0.4-0.4,0.4-0.4L36.1,74z"/>
		<path class="st22" d="M47.7,86.9c0.3,0.1,0.6,0.2,1,0.3l-0.2,0.9c0,0,0.1,0.4,0.3,0.8c-0.4-0.1-0.9-0.2-1.3-0.4
			c-0.1-0.3-0.1-0.5-0.1-0.5L47.7,86.9z"/>
		<path class="st22" d="M50.7,87.6c0.3,0,0.7,0.1,1,0.1l-0.1,0.9c0,0,0.2,0.4,0.4,0.8c-0.4,0-0.9-0.1-1.3-0.1
			c-0.1-0.3-0.2-0.5-0.2-0.5L50.7,87.6z"/>
		<path class="st22" d="M44.9,85.7c0.3,0.2,0.6,0.3,0.9,0.5L45.5,87c0,0,0,0.1,0,0.3c0,0.2,0.1,0.4,0.1,0.6
			c-0.4-0.2-0.8-0.4-1.2-0.6c0-0.3-0.1-0.5-0.1-0.5L44.9,85.7z"/>
		<path class="st22" d="M42.4,84.1c0.3,0.2,0.5,0.4,0.8,0.6l-0.5,0.8c0,0,0,0.4,0,0.9c-0.4-0.2-0.7-0.5-1.1-0.8c0-0.3,0-0.5,0-0.5
			L42.4,84.1z"/>
		<path class="st22" d="M41.7,55.2c0.4,0.2,0.8,0.3,0.8,0.3l0.5,0.7c0.3-0.2,0.6-0.4,0.9-0.6l-0.7-1.1c0,0-0.1-0.1-0.3-0.2
			c0,0-0.1,0-0.1-0.1C42.4,54.7,42.1,54.9,41.7,55.2"/>
		<path class="st22" d="M54.6,52.2l-0.1,0.9c0.3,0,0.7,0.1,1,0.1l0.2-1.2c0,0-0.1-0.2-0.2-0.5c-0.4-0.1-0.9-0.1-1.3-0.1
			C54.4,51.9,54.6,52.2,54.6,52.2"/>
		<path class="st22" d="M60.4,54.7c0.3,0.1,0.6,0.3,0.9,0.5l0.6-1.1c0,0,0-0.2-0.1-0.5c-0.4-0.2-0.8-0.4-1.2-0.6
			c0,0.2,0.1,0.4,0.1,0.6c0,0.2,0,0.3,0,0.3L60.4,54.7z"/>
		<path class="st22" d="M57.7,52.8l-0.2,0.9c0.3,0.1,0.7,0.2,1,0.3l0.4-1.2c0,0-0.1-0.2-0.1-0.5c-0.4-0.1-0.8-0.3-1.3-0.4
			C57.6,52.4,57.7,52.8,57.7,52.8"/>
		<path class="st22" d="M47.6,52.2c0.2,0.1,0.3,0.3,0.4,0.4c0.1,0.1,0.2,0.2,0.2,0.2l0.2,0.9c0.3-0.1,0.7-0.2,1-0.2l-0.3-1.2
			c0,0-0.1-0.2-0.4-0.4C48.5,52,48,52.1,47.6,52.2"/>
		<path class="st22" d="M39.4,59.7c-0.2,0.3-0.4,0.5-0.6,0.8L38.1,60c0,0-0.4,0-0.9,0c0.2-0.4,0.5-0.7,0.8-1.1c0.3,0,0.5,0,0.5,0
			L39.4,59.7z"/>
		<path class="st22" d="M36.6,65.1c-0.1,0.3-0.2,0.7-0.3,1l-0.9-0.2c0,0-0.4,0.1-0.8,0.3c0.1-0.4,0.2-0.9,0.4-1.3
			c0.3-0.1,0.5-0.1,0.5-0.1L36.6,65.1z"/>
		<path class="st22" d="M50.9,51.6c0.3,0.3,0.6,0.7,0.6,0.7l0.1,0.9c0.3,0,0.7-0.1,1-0.1l0-1.2c0,0-0.1-0.2-0.3-0.4
			C51.7,51.5,51.3,51.5,50.9,51.6"/>
		<path class="st22" d="M44.5,53.5c0.4,0.2,0.8,0.5,0.8,0.5l0.4,0.8c0.3-0.1,0.6-0.3,0.9-0.4l-0.5-1.2c0,0-0.2-0.1-0.4-0.3
			C45.3,53.1,44.9,53.3,44.5,53.5"/>
		<path class="st22" d="M37.8,62.3c-0.2,0.3-0.3,0.6-0.5,0.9l-0.8-0.4c0,0-0.1,0-0.3,0c-0.2,0-0.4,0.1-0.6,0.1
			c0.2-0.4,0.4-0.8,0.6-1.2c0.3,0,0.5-0.1,0.5-0.1L37.8,62.3z"/>
		<path class="st22" d="M35.9,68c0,0.3-0.1,0.7-0.1,1l-0.9-0.1c0,0-0.4,0.2-0.8,0.4c0-0.4,0.1-0.9,0.1-1.3c0.3-0.1,0.5-0.2,0.5-0.2
			L35.9,68z"/>
		<path class="st22" d="M63,56.2c0.3,0.2,0.6,0.4,0.8,0.6l0.8-1c0,0,0-0.2,0-0.5c-0.4-0.3-0.7-0.5-1.1-0.8c0,0.5,0,0.9,0,0.9
			L63,56.2z"/>
		<path class="st22" d="M41.5,57.5c-0.3,0.2-0.5,0.5-0.7,0.7l-0.6-0.6c0,0-0.4-0.1-0.9-0.2c0.3-0.3,0.6-0.6,1-0.9
			c0.3,0.1,0.5,0.1,0.5,0.1L41.5,57.5z"/>
		<path class="st22" d="M65.3,58.1c0.2,0.2,0.5,0.5,0.7,0.7l0.9-0.8c0,0,0.1-0.2,0.1-0.5c-0.3-0.3-0.6-0.7-0.9-1
			c-0.1,0.5-0.2,0.9-0.2,0.9L65.3,58.1z"/>
		<g class="st23">
			<g>
				<defs>
					<rect id="SVGID_19_" x="65.3" y="56.6" width="1.8" height="2.3"/>
				</defs>
				<clipPath id="SVGID_20_">
					<use xlink:href="#SVGID_19_"  style="overflow:visible;"/>
				</clipPath>
				<path class="st24" d="M65.3,58.1c0.2,0.2,0.5,0.5,0.7,0.7l0.9-0.8c0,0,0.1-0.2,0.1-0.5c-0.3-0.3-0.6-0.7-0.9-1
					c-0.1,0.5-0.2,0.9-0.2,0.9L65.3,58.1z"/>
			</g>
		</g>
		<g class="st25">
			<g>
				<defs>
					<rect id="SVGID_21_" x="34.3" y="74.5" width="0.2" height="0.3"/>
				</defs>
				<clipPath id="SVGID_22_">
					<use xlink:href="#SVGID_21_"  style="overflow:visible;"/>
				</clipPath>
				<path class="st26" d="M34.6,74.7c0,0-0.1,0.1-0.2,0.2c0-0.1,0-0.2-0.1-0.3C34.4,74.6,34.5,74.6,34.6,74.7"/>
			</g>
		</g>
		<path class="st27" d="M38.8,70.4c0,7.9,6.4,14.3,14.3,14.3c7.9,0,14.3-6.4,14.3-14.3c0-7.9-6.4-14.3-14.3-14.3
			C45.2,56.1,38.8,62.5,38.8,70.4"/>
		<path class="st22" d="M41.3,70.4c0,6.5,5.3,11.8,11.8,11.8S64.9,77,64.9,70.4c0-6.5-5.3-11.8-11.8-11.8S41.3,63.9,41.3,70.4"/>
		<polygon class="st28" points="52.5,72.4 53.7,68.4 41.5,65.2 40.6,67.8 		"/>
		<polygon class="st28" points="54.8,71.6 51.4,69.2 44.6,79.9 46.7,81.4 		"/>
		<polygon class="st28" points="54.8,69.2 51.4,71.6 59.5,81.4 61.6,79.9 		"/>
		<polygon class="st28" points="52.5,68.4 53.7,72.4 65.6,67.8 64.7,65.2 		"/>
		<polygon class="st28" points="51,70.4 55.2,70.4 54.4,57.7 51.8,57.7 		"/>
		<path class="st27" d="M48.8,70.4c0,2.4,1.9,4.3,4.3,4.3c2.4,0,4.3-1.9,4.3-4.3s-1.9-4.3-4.3-4.3C50.7,66.1,48.8,68.1,48.8,70.4"/>
	</g>
	<g class="st0">
		<defs>
			<rect id="SVGID_23_" y="0" width="227.7" height="94.3"/>
		</defs>
		<clipPath id="SVGID_24_">
			<use xlink:href="#SVGID_23_"  style="overflow:visible;"/>
		</clipPath>
		<path class="st29" d="M53.1,52h-8.3c-8.8,0-16.2,6.9-16.9,15.7C28.1,58.1,32.4,47.2,53.1,52"/>
		<path class="st29" d="M187.4,52H179c-8.8,0-16.2,6.9-16.9,15.7C162.4,58.1,166.7,47.2,187.4,52"/>
		<g class="st30">
			<g>
				<defs>
					<rect id="SVGID_25_" x="64.3" y="6.5" width="34" height="20.8"/>
				</defs>
				<clipPath id="SVGID_26_">
					<use xlink:href="#SVGID_25_"  style="overflow:visible;"/>
				</clipPath>
				<path class="st31" d="M64.3,9.2l13.4,17.6L92,27.1L76.3,6.5h-0.4c-2.9,0-5.5,0.1-8.6,0.2c-0.2,0-0.5,0.1-0.9,0.4
					C65.8,7.5,65.1,8.2,64.3,9.2"/>
				<path class="st31" d="M78.1,6.5l15.6,20.7l4.6,0.1L82.7,6.5h0c-0.5,0-0.9,0-1.4,0l-1.1,0C79.5,6.5,78.8,6.5,78.1,6.5"/>
			</g>
		</g>
		<g class="st30">
			<g>
				<defs>
					<rect id="SVGID_27_" x="28.7" y="6.3" width="18.3" height="19.7"/>
				</defs>
				<clipPath id="SVGID_28_">
					<use xlink:href="#SVGID_27_"  style="overflow:visible;"/>
				</clipPath>
				<path class="st32" d="M28.7,17.1l6.7,8.8l6.1,0.1c0.1,0,0.2-0.1,0.2-0.1c0.8-2,1.8-4.1,2.9-6.4L35.7,7.8
					c-1.6,0.9-2.5,2.1-3.6,3.8C31,13.3,29.8,15.2,28.7,17.1"/>
				<path class="st32" d="M37,7.2l8.3,10.9c0.6-1.2,1.2-2.4,1.8-3.7l-6.1-8.1C39.3,6.5,38,6.8,37,7.2"/>
			</g>
		</g>
	</g>
</g>
</svg>
