<?xml version="1.0" encoding="utf-8"?>
<!-- Generator: Adobe Illustrator 21.0.0, SVG Export Plug-In . SVG Version: 6.00 Build 0)  -->
<svg version="1.1" id="Layer_1" xmlns="http://www.w3.org/2000/svg" xmlns:xlink="http://www.w3.org/1999/xlink" x="0px" y="0px"
	 viewBox="0 0 227.6 63" style="enable-background:new 0 0 227.6 63;" xml:space="preserve">
<style type="text/css">
	.st0{clip-path:url(#SVGID_2_);}
	.st1{clip-path:url(#SVGID_4_);fill:#E94E1B;}
	.st2{clip-path:url(#SVGID_4_);fill:#F9B659;}
	.st3{clip-path:url(#SVGID_4_);fill:#122237;}
	.st4{opacity:0.1;clip-path:url(#SVGID_4_);}
	.st5{clip-path:url(#SVGID_6_);fill:#1D1D1B;}
	.st6{clip-path:url(#SVGID_4_);fill:#DAD1D1;}
	.st7{clip-path:url(#SVGID_4_);fill:#22395A;}
	.st8{opacity:0.2;clip-path:url(#SVGID_4_);}
	.st9{clip-path:url(#SVGID_8_);fill:#F6F6F6;}
	.st10{clip-path:url(#SVGID_10_);fill:#F6F6F6;}
	.st11{clip-path:url(#SVGID_4_);fill:#ABEDE3;}
	.st12{clip-path:url(#SVGID_4_);fill:#403430;}
	.st13{opacity:0.75;clip-path:url(#SVGID_4_);}
	.st14{clip-path:url(#SVGID_12_);fill:#FFFFFF;}
	.st15{clip-path:url(#SVGID_14_);fill:#FFFFFF;}
	.st16{clip-path:url(#SVGID_16_);}
	.st17{clip-path:url(#SVGID_4_);fill:#1D1715;}
	.st18{clip-path:url(#SVGID_4_);fill:#FFFFFF;}
	.st19{opacity:0.5;clip-path:url(#SVGID_4_);}
	.st20{clip-path:url(#SVGID_18_);fill:#FFFFFF;}
	.st21{clip-path:url(#SVGID_20_);fill:#FFFFFF;}
	.st22{clip-path:url(#SVGID_22_);fill:#FFFFFF;}
	.st23{clip-path:url(#SVGID_24_);fill:#FFFFFF;}
</style>
<g>
	<defs>
		<rect id="SVGID_1_" y="0" width="227.6" height="63"/>
	</defs>
	<clipPath id="SVGID_2_">
		<use xlink:href="#SVGID_1_"  style="overflow:visible;"/>
	</clipPath>
	<g class="st0">
		<defs>
			<rect id="SVGID_3_" width="227.6" height="63"/>
		</defs>
		<clipPath id="SVGID_4_">
			<use xlink:href="#SVGID_3_"  style="overflow:visible;"/>
		</clipPath>
		<path class="st1" d="M224.2,35.8l-0.4,0c-0.4,0-0.8-0.6-0.9-1.5l-0.6-5.4c-0.1-1,0.2-1.9,0.7-1.9l0.3,0c0.4,0,0.8,0.6,0.9,1.5
			l0.7,5.4C225,34.8,224.7,35.7,224.2,35.8"/>
		<path class="st2" d="M4.2,37.4l-1.6-0.1c-1-0.1-1.8-0.9-1.9-2L0,27.8c-0.1-1.1,0.5-2,1.5-2.3l1-0.3L4.2,37.4z"/>
		<polygon class="st3" points="4.8,37.8 2.5,37.6 1.2,25 4,25 		"/>
		<g class="st4">
			<g>
				<defs>
					<rect id="SVGID_5_" x="2.6" y="54.5" width="225" height="8.5"/>
				</defs>
				<clipPath id="SVGID_6_">
					<use xlink:href="#SVGID_5_"  style="overflow:visible;"/>
				</clipPath>
				<path class="st5" d="M227.6,58.8c0,2.3-50.4,4.3-112.5,4.3C53,63,2.6,61.1,2.6,58.8s50.4-4.3,112.5-4.3
					C177.2,54.5,227.6,56.4,227.6,58.8"/>
			</g>
		</g>
		<path class="st6" d="M4.5,45.2L2,45.3c-0.6,0-1.2-0.4-1.3-1.1l-0.6-4.1c-0.1-0.8,0.5-1.5,1.3-1.5h3.4l0.8,5.4
			C5.6,44.7,5.1,45.2,4.5,45.2"/>
		<path class="st7" d="M216.3,46.1l-23.9,1.7l-1.3,0.1l-3,0.2H23.6L9.7,46.2c-3-0.4-5.3-2.7-5.7-5.7L2.5,25.7
			c-0.5-3.8,2.3-4.4,6.1-4.6L71,17.9c2.3-0.1,4.5-0.9,6.4-2.4L95.7,1.5c1.2-1,2.7-1.5,4.3-1.5H154c5.2,0,10.3,2.1,14,5.7l8,7.8
			c1,1,2.2,1.6,3.5,1.9l40,8.3c1.9,0.4,3.4,2,3.6,3.9l1,9.2C224.5,41.5,221,45.7,216.3,46.1"/>
		<g class="st8">
			<g>
				<defs>
					<rect id="SVGID_7_" x="4.2" y="20" width="62.9" height="20.3"/>
				</defs>
				<clipPath id="SVGID_8_">
					<use xlink:href="#SVGID_7_"  style="overflow:visible;"/>
				</clipPath>
				<path class="st9" d="M67.1,20L8.7,22.9c-1.3,0.1-4.9,0.2-4.4,3.2l1.5,14.2c-1-16.3,1-15.3,7.8-15.9L67.1,20z"/>
			</g>
		</g>
		<g class="st8">
			<g>
				<defs>
					<rect id="SVGID_9_" x="178.7" y="16.8" width="43.5" height="20.2"/>
				</defs>
				<clipPath id="SVGID_10_">
					<use xlink:href="#SVGID_9_"  style="overflow:visible;"/>
				</clipPath>
				<path class="st10" d="M222.2,37l-1-9.2c-0.1-1.2-1-2.1-2.1-2.4l-39.7-8.7c-0.1,0-0.7,0.3-0.7,0.3
					C217.3,26.1,219.1,25.4,222.2,37"/>
			</g>
		</g>
		<path class="st3" d="M100,1.8c-1.1,0-2.3,0.4-3.2,1.1L78.5,17c-0.8,0.6-1.6,1.1-2.5,1.5l-2.4,10L76,46.2h48.8l-1.8-18.3l1.8-26
			H100z"/>
		<path class="st11" d="M122.8,3.7H100c-0.7,0-1.5,0.3-2.1,0.7L79.6,18.5c-0.1,0.1-0.3,0.2-0.4,0.3h42.5L122.8,3.7z"/>
		<path class="st3" d="M159.3,4.6c-1.2-1.7-3.2-2.8-5.3-2.8h0h-27.4l-1.8,26l1.8,18.3h28.8c0.8-7.9,6.2-14.4,13.7-16.7l0.1-8.8
			c0-1.5-0.4-2.9-1.3-4.1L159.3,4.6z"/>
		<path class="st11" d="M157.8,5.7c-0.9-1.3-2.3-2-3.8-2h-25.7l-1.1,15.2l39.7,0L157.8,5.7z"/>
		<rect x="112.3" y="21.4" class="st6" width="8.1" height="2.6"/>
		<rect x="158.8" y="21.4" class="st6" width="8.1" height="2.6"/>
		<path class="st6" d="M224,36.7l0.1,1.2h-5c-2.5,0-4.6,2.1-4.6,4.6v0l10.8-0.5c1.2,0,2.4-1,2.3-2.2c0-0.3,0-0.5-0.1-0.8
			c-0.1-1.3-1.2-2.3-2.5-2.3H224z"/>
		<path class="st6" d="M9.1,44.1H2.6c-0.6,0-1.1-0.4-1.2-1L1,41.3c-0.2-0.8,0.4-1.5,1.2-1.5h6.5c0.6,0,1.1,0.4,1.2,1l0.4,1.8
			C10.4,43.4,9.8,44.1,9.1,44.1"/>
		<polygon class="st7" points="86.5,19.5 82.6,21.2 82.4,19.3 85.7,16.2 		"/>
		<path class="st7" d="M87.6,13.7l-0.3,0c-1,0.1-1.8,0.8-2.1,1.8l-0.5,2c-0.5,2.1,1.2,4.1,3.4,3.8l0.4-0.1L87.6,13.7z"/>
		<path class="st12" d="M60.1,48H27.3l0.9-5.2c0.6-3.3,2.6-5.9,5.4-7.4c1.4-0.7,3.1-1.2,4.8-1.2h9.9c2.2,0,4.3,0.7,6,1.8
			c2.5,1.6,4.4,4.3,5,7.5L60.1,48z"/>
		<path class="st12" d="M192.4,47.7l-1.3,0.1l-1.2,0.1l-1.8,0.1h-28.5l0.9-5.2c0.6-3.2,2.6-5.9,5.3-7.3c1.4-0.8,3.1-1.2,4.8-1.2h9.9
			c2.2,0,4.2,0.6,6,1.7c2.6,1.6,4.5,4.3,5,7.5L192.4,47.7z"/>
		<g class="st13">
			<g>
				<defs>
					<rect id="SVGID_11_" x="92.9" y="4.3" width="22.9" height="14"/>
				</defs>
				<clipPath id="SVGID_12_">
					<use xlink:href="#SVGID_11_"  style="overflow:visible;"/>
				</clipPath>
				<polygon class="st14" points="107.3,4.3 96.6,18.4 105.1,18.4 115.8,4.3 				"/>
				<polygon class="st14" points="103.5,4.3 92.9,18.4 95.6,18.4 106.2,4.3 				"/>
			</g>
		</g>
		<g class="st13">
			<g>
				<defs>
					<rect id="SVGID_13_" x="129.8" y="4.3" width="22.9" height="14"/>
				</defs>
				<clipPath id="SVGID_14_">
					<use xlink:href="#SVGID_13_"  style="overflow:visible;"/>
				</clipPath>
				<polygon class="st15" points="144.3,4.3 133.6,18.4 142,18.4 152.8,4.3 				"/>
				<polygon class="st15" points="140.4,4.3 129.8,18.4 132.6,18.4 143.2,4.3 				"/>
			</g>
		</g>
		<g class="st8">
			<g>
				<defs>
					<rect id="SVGID_15_" x="0.1" y="29.9" width="227.5" height="18.1"/>
				</defs>
				<clipPath id="SVGID_16_">
					<use xlink:href="#SVGID_15_"  style="overflow:visible;"/>
				</clipPath>
				<path class="st16" d="M225,36.7h-1l-0.1-0.9l0.3,0c0.5,0,0.8-1,0.7-2l-0.5-3.8L0.1,39.7c0,0.1,0,0.3,0,0.4l0.6,4.1
					c0.1,0.6,0.6,1.1,1.3,1.1l2.5-0.1c0.6,0,1.1-0.6,1-1.2v0h0.1c1,1.2,2.5,2,4.1,2.2L23.6,48h3.7h32.8h99.6h28.5l3-0.2l1.3-0.1
					l23.9-1.7c2.8-0.2,5.1-1.7,6.5-3.9l2.6-0.1c1.2,0,2.4-1,2.3-2.2c0-0.3,0-0.5-0.1-0.8C227.4,37.7,226.3,36.7,225,36.7
					 M224.1,37.9C224.1,37.9,224.1,37.8,224.1,37.9L224.1,37.9L224.1,37.9z"/>
			</g>
		</g>
		<path class="st6" d="M52.7,45.4c0,5-4,9-9,9c-5,0-9-4-9-9s4-9,9-9C48.6,36.4,52.7,40.4,52.7,45.4"/>
		<path class="st17" d="M54.3,36.1c-1.8-1.1-3.8-1.8-6-1.8h-9.9c-1.7,0-3.3,0.4-4.8,1.2c-2.5,2.5-4,6-4,9.9c0,0.9,0.1,1.8,0.2,2.7
			c1.2,6.5,7,11.5,13.9,11.5c6.9,0,12.6-4.9,13.9-11.5c0.2-0.9,0.3-1.7,0.3-2.6C57.8,41.8,56.5,38.6,54.3,36.1 M35.4,48
			c-0.3-0.8-0.4-1.7-0.4-2.7c0-4.8,3.9-8.7,8.7-8.7c4.8,0,8.7,3.9,8.7,8.7c0,0.9-0.1,1.8-0.4,2.6c-1.1,3.5-4.4,6-8.3,6
			C39.8,54,36.5,51.5,35.4,48"/>
		<path class="st18" d="M50.2,45.4c0,3.6-2.9,6.6-6.6,6.6c-3.6,0-6.6-2.9-6.6-6.6s2.9-6.6,6.6-6.6C47.3,38.8,50.2,41.7,50.2,45.4"/>
		<path class="st6" d="M47.6,45.4c0,2.2-1.8,4-4,4c-2.2,0-4-1.8-4-4s1.8-4,4-4C45.9,41.4,47.6,43.2,47.6,45.4"/>
		<g class="st19">
			<g>
				<defs>
					<rect id="SVGID_17_" x="36.9" y="38.2" width="6.8" height="7.1"/>
				</defs>
				<clipPath id="SVGID_18_">
					<use xlink:href="#SVGID_17_"  style="overflow:visible;"/>
				</clipPath>
				<path class="st20" d="M40.2,38.2c-1.4,0.7-2.5,1.7-3.3,3l6.8,4.1L40.2,38.2z"/>
			</g>
		</g>
		<g class="st19">
			<g>
				<defs>
					<rect id="SVGID_19_" x="43.7" y="45.3" width="6.8" height="7.2"/>
				</defs>
				<clipPath id="SVGID_20_">
					<use xlink:href="#SVGID_19_"  style="overflow:visible;"/>
				</clipPath>
				<path class="st21" d="M43.7,45.3l3.5,7.2c1.4-0.7,2.6-1.8,3.3-3.1L43.7,45.3z"/>
			</g>
		</g>
		<path class="st6" d="M185,45.4c0,5-4,9-9,9c-5,0-9-4-9-9s4-9,9-9C181,36.4,185,40.4,185,45.4"/>
		<path class="st17" d="M186.6,36.1c-1.7-1.1-3.8-1.7-6-1.7h-9.9c-1.7,0-3.4,0.4-4.8,1.2c-2.5,2.5-4,6-4,9.8c0,0.9,0.1,1.8,0.2,2.7
			c1.2,6.5,7,11.5,13.8,11.5c6.9,0,12.7-5,13.9-11.6c0.1-0.8,0.2-1.7,0.2-2.5C190.1,41.8,188.8,38.5,186.6,36.1 M167.7,48
			c-0.3-0.8-0.4-1.7-0.4-2.7c0-4.8,3.9-8.7,8.7-8.7c4.8,0,8.7,3.9,8.7,8.7c0,0.9-0.1,1.8-0.4,2.6c-1.1,3.5-4.4,6-8.3,6
			C172.1,54,168.8,51.5,167.7,48"/>
		<path class="st18" d="M182.6,45.4c0,3.6-2.9,6.6-6.6,6.6s-6.6-2.9-6.6-6.6s2.9-6.6,6.6-6.6S182.6,41.7,182.6,45.4"/>
		<path class="st6" d="M180,45.4c0,2.2-1.8,4-4,4c-2.2,0-4-1.8-4-4s1.8-4,4-4C178.2,41.4,180,43.2,180,45.4"/>
		<g class="st19">
			<g>
				<defs>
					<rect id="SVGID_21_" x="169.2" y="38.2" width="6.8" height="7.1"/>
				</defs>
				<clipPath id="SVGID_22_">
					<use xlink:href="#SVGID_21_"  style="overflow:visible;"/>
				</clipPath>
				<path class="st22" d="M172.6,38.2c-1.4,0.7-2.5,1.7-3.3,3l6.8,4.1L172.6,38.2z"/>
			</g>
		</g>
		<g class="st19">
			<g>
				<defs>
					<rect id="SVGID_23_" x="176" y="45.3" width="6.8" height="7.2"/>
				</defs>
				<clipPath id="SVGID_24_">
					<use xlink:href="#SVGID_23_"  style="overflow:visible;"/>
				</clipPath>
				<path class="st23" d="M176,45.3l3.5,7.2c1.4-0.7,2.6-1.8,3.3-3.1L176,45.3z"/>
			</g>
		</g>
	</g>
</g>
</svg>
